<svg width="19" height="18" viewBox="0 0 19 18" fill="none" xmlns="http://www.w3.org/2000/svg">
<circle cx="9.46155" cy="9" r="8.43333" fill="url(#paint0_linear_31_4871)" stroke="url(#paint1_linear_31_4871)" stroke-width="1.13333"/>
<g filter="url(#filter0_i_31_4871)">
<path d="M8.52495 2.80572C8.78032 2.26463 9.55087 2.26463 9.80624 2.80572L11.1449 5.64206C11.2478 5.86021 11.4549 6.01094 11.6943 6.042L14.8003 6.44484C15.3917 6.52154 15.6293 7.2495 15.1968 7.65969L12.9148 9.82364C12.7406 9.98883 12.6621 10.231 12.7062 10.4668L13.2851 13.5606C13.3949 14.1478 12.7721 14.5983 12.248 14.3109L9.50646 12.8072C9.29416 12.6908 9.03703 12.6908 8.82473 12.8072L6.08322 14.3109C5.55912 14.5983 4.93628 14.1478 5.04613 13.5606C5.2211 12.612 5.3526 11.7948 5.5887 11.2445C6.25763 10.2617 9.83839 8.96454 9.67716 8.75978C9.72035 8.57145 5.51 9.51487 4.80172 9.12178L4.40823 8.88592L3.13444 7.65968C2.70189 7.2495 2.93945 6.52154 3.53088 6.44484L6.63687 6.042C6.87628 6.01094 7.08337 5.86021 7.18633 5.64206L8.52495 2.80572Z" fill="#BCAD1A"/>
</g>
<defs>
<filter id="filter0_i_31_4871" x="2.91296" y="2.3999" width="12.5052" height="12" filterUnits="userSpaceOnUse" color-interpolation-filters="sRGB">
<feFlood flood-opacity="0" result="BackgroundImageFix"/>
<feBlend mode="normal" in="SourceGraphic" in2="BackgroundImageFix" result="shape"/>
<feColorMatrix in="SourceAlpha" type="matrix" values="0 0 0 0 0 0 0 0 0 0 0 0 0 0 0 0 0 0 127 0" result="hardAlpha"/>
<feOffset dx="1"/>
<feComposite in2="hardAlpha" operator="arithmetic" k2="-1" k3="1"/>
<feColorMatrix type="matrix" values="0 0 0 0 0 0 0 0 0 0 0 0 0 0 0 0 0 0 0.25 0"/>
<feBlend mode="normal" in2="shape" result="effect1_innerShadow_31_4871"/>
</filter>
<linearGradient id="paint0_linear_31_4871" x1="0.461548" y1="8.47059" x2="18.4615" y2="10.0588" gradientUnits="userSpaceOnUse">
<stop stop-color="#FFF36A"/>
<stop offset="1" stop-color="#DBCE5A"/>
</linearGradient>
<linearGradient id="paint1_linear_31_4871" x1="0.99096" y1="7.94118" x2="22.6968" y2="19.0588" gradientUnits="userSpaceOnUse">
<stop stop-color="#E3D548"/>
<stop offset="1" stop-color="#9E9536"/>
</linearGradient>
</defs>
</svg>
