<svg width="35" height="35" viewBox="0 0 35 35" fill="none" xmlns="http://www.w3.org/2000/svg">
<path d="M15.7102 1.98319C16.4251 0.46845 18.5822 0.468452 19.2971 1.9832L23.0444 9.92327C23.3327 10.5339 23.9124 10.9559 24.5826 11.0428L33.2775 12.1706C34.9332 12.3853 35.5982 14.4231 34.3873 15.5714L27.9993 21.6292C27.5117 22.0916 27.2918 22.7694 27.4154 23.4297L29.0357 32.0905C29.3432 33.7342 27.5997 34.9954 26.1325 34.1907L18.4579 29.9815C17.8636 29.6555 17.1437 29.6555 16.5494 29.9815L8.87484 34.1907C7.40766 34.9954 5.66409 33.7342 5.97159 32.0905C6.46141 29.4349 6.82955 27.1473 7.49047 25.6067C9.36309 22.8556 19.3871 19.2242 18.9357 18.651C19.0566 18.1238 7.27016 20.7648 5.28739 19.6644L4.18585 19.0041L0.62 15.5714C-0.590871 14.4231 0.0741412 12.3853 1.7298 12.1706L10.4247 11.0428C11.0949 10.9559 11.6747 10.5339 11.9629 9.92327L15.7102 1.98319Z" fill="#35D34D"/>
<circle cx="17.5837" cy="19.2922" r="8.39586" fill="white"/>
<path d="M14.1202 19.5766L13.1095 19.3349L13.4742 16.0918H17.069V17.1157H14.5157L14.3575 18.5351C14.4425 18.4853 14.5714 18.4326 14.7442 18.3769C14.9171 18.3183 15.1105 18.289 15.3243 18.289C15.6349 18.289 15.9103 18.3374 16.1505 18.4341C16.3907 18.5307 16.5943 18.6714 16.7613 18.8559C16.9313 19.0405 17.0602 19.2661 17.1481 19.5327C17.2359 19.7993 17.2799 20.101 17.2799 20.438C17.2799 20.7221 17.2359 20.9931 17.1481 21.2509C17.0602 21.5058 16.9269 21.7343 16.7482 21.9365C16.5694 22.1357 16.3453 22.2924 16.0758 22.4067C15.8063 22.521 15.4869 22.5781 15.1178 22.5781C14.8424 22.5781 14.5758 22.5371 14.318 22.455C14.0631 22.373 13.8331 22.2514 13.628 22.0903C13.4259 21.9292 13.2633 21.7343 13.1402 21.5058C13.0201 21.2744 12.9571 21.0107 12.9513 20.7148H14.2081C14.2257 20.8965 14.2726 21.0532 14.3487 21.185C14.4278 21.3139 14.5318 21.4135 14.6608 21.4839C14.7897 21.5542 14.9405 21.5893 15.1134 21.5893C15.2745 21.5893 15.4122 21.5586 15.5265 21.497C15.6407 21.4355 15.733 21.3506 15.8033 21.2422C15.8736 21.1308 15.9249 21.0019 15.9571 20.8554C15.9923 20.706 16.0099 20.5449 16.0099 20.372C16.0099 20.1992 15.9894 20.0424 15.9483 19.9018C15.9073 19.7612 15.8443 19.6396 15.7594 19.5371C15.6744 19.4345 15.566 19.3554 15.4342 19.2998C15.3053 19.2441 15.1544 19.2163 14.9816 19.2163C14.7472 19.2163 14.5655 19.2529 14.4366 19.3261C14.3107 19.3994 14.2052 19.4829 14.1202 19.5766ZM22.4039 18.7285V19.8359C22.4039 20.3164 22.3526 20.7309 22.2501 21.0796C22.1476 21.4253 21.9996 21.7094 21.8063 21.9321C21.6158 22.1518 21.3888 22.3144 21.1251 22.4199C20.8614 22.5254 20.5685 22.5781 20.2462 22.5781C19.9884 22.5781 19.7482 22.5459 19.5255 22.4814C19.3028 22.414 19.1022 22.31 18.9234 22.1694C18.7477 22.0288 18.5953 21.8515 18.4664 21.6377C18.3404 21.4209 18.2438 21.1631 18.1764 20.8642C18.109 20.5654 18.0753 20.2226 18.0753 19.8359V18.7285C18.0753 18.248 18.1266 17.8364 18.2291 17.4936C18.3346 17.1479 18.4825 16.8652 18.673 16.6455C18.8663 16.4258 19.0948 16.2646 19.3585 16.1621C19.6222 16.0566 19.9151 16.0039 20.2374 16.0039C20.4952 16.0039 20.734 16.0376 20.9537 16.1049C21.1764 16.1694 21.3771 16.2705 21.5558 16.4082C21.7345 16.5459 21.8868 16.7231 22.0128 16.9399C22.1388 17.1538 22.2355 17.4101 22.3028 17.709C22.3702 18.0049 22.4039 18.3447 22.4039 18.7285ZM21.1339 20.0029V18.5571C21.1339 18.3257 21.1207 18.1235 21.0943 17.9507C21.0709 17.7778 21.0343 17.6313 20.9845 17.5112C20.9347 17.3882 20.8732 17.2885 20.7999 17.2124C20.7267 17.1362 20.6432 17.0805 20.5494 17.0454C20.4557 17.0102 20.3517 16.9926 20.2374 16.9926C20.0939 16.9926 19.9664 17.0205 19.8551 17.0761C19.7467 17.1318 19.6544 17.2212 19.5782 17.3442C19.5021 17.4643 19.4435 17.6255 19.4024 17.8276C19.3644 18.0268 19.3453 18.27 19.3453 18.5571V20.0029C19.3453 20.2343 19.357 20.438 19.3805 20.6137C19.4068 20.7895 19.4449 20.9404 19.4947 21.0664C19.5475 21.1894 19.609 21.2905 19.6793 21.3696C19.7525 21.4458 19.836 21.5014 19.9298 21.5366C20.0265 21.5717 20.1319 21.5893 20.2462 21.5893C20.3868 21.5893 20.5113 21.5615 20.6197 21.5058C20.7311 21.4472 20.8248 21.3564 20.901 21.2334C20.9801 21.1074 21.0387 20.9433 21.0768 20.7412C21.1149 20.539 21.1339 20.2929 21.1339 20.0029Z" fill="black"/>
</svg>
