<svg width="35" height="35" viewBox="0 0 35 35" fill="none" xmlns="http://www.w3.org/2000/svg">
<path d="M15.7069 1.18364C16.4217 -0.394549 18.5783 -0.394547 19.2931 1.18365L23.0396 9.4563C23.3278 10.0926 23.9074 10.5322 24.5775 10.6228L33.2706 11.7977C34.9259 12.0215 35.5907 14.1447 34.3801 15.341L27.9934 21.6526C27.5059 22.1344 27.2861 22.8406 27.4096 23.5285L29.0297 32.5521C29.3371 34.2646 27.5939 35.5787 26.127 34.7403L18.454 30.3547C17.8598 30.0151 17.1402 30.0151 16.546 30.3547L8.87299 34.7403C7.40611 35.5787 5.6629 34.2646 5.97034 32.5521C6.46005 29.7852 6.82812 27.4018 7.4889 25.7967C9.36113 22.9304 19.383 19.1469 18.9318 18.5496C19.0527 18.0003 7.26864 20.752 5.28628 19.6055L4.18498 18.9176L0.61987 15.341C-0.590747 14.1447 0.0741257 12.0215 1.72944 11.7977L10.4225 10.6228C11.0926 10.5322 11.6722 10.0926 11.9604 9.4563L15.7069 1.18364Z" fill="#31B545"/>
<circle cx="17.5" cy="19.5" r="8.5" fill="white"/>
<path d="M13.9624 20.0864L12.9517 19.8447L13.3164 16.6016H16.9111V17.6255H14.3579L14.1997 19.0449C14.2847 18.9951 14.4136 18.9424 14.5864 18.8867C14.7593 18.8281 14.9526 18.7988 15.1665 18.7988C15.4771 18.7988 15.7524 18.8472 15.9927 18.9438C16.2329 19.0405 16.4365 19.1812 16.6035 19.3657C16.7734 19.5503 16.9023 19.7759 16.9902 20.0425C17.0781 20.3091 17.1221 20.6108 17.1221 20.9478C17.1221 21.2319 17.0781 21.5029 16.9902 21.7607C16.9023 22.0156 16.769 22.2441 16.5903 22.4463C16.4116 22.6455 16.1875 22.8022 15.918 22.9165C15.6484 23.0308 15.3291 23.0879 14.96 23.0879C14.6846 23.0879 14.418 23.0469 14.1602 22.9648C13.9053 22.8828 13.6753 22.7612 13.4702 22.6001C13.2681 22.439 13.1055 22.2441 12.9824 22.0156C12.8623 21.7842 12.7993 21.5205 12.7935 21.2246H14.0503C14.0679 21.4062 14.1147 21.563 14.1909 21.6948C14.27 21.8237 14.374 21.9233 14.5029 21.9937C14.6318 22.064 14.7827 22.0991 14.9556 22.0991C15.1167 22.0991 15.2544 22.0684 15.3687 22.0068C15.4829 21.9453 15.5752 21.8604 15.6455 21.752C15.7158 21.6406 15.7671 21.5117 15.7993 21.3652C15.8345 21.2158 15.8521 21.0547 15.8521 20.8818C15.8521 20.709 15.8315 20.5522 15.7905 20.4116C15.7495 20.271 15.6865 20.1494 15.6016 20.0469C15.5166 19.9443 15.4082 19.8652 15.2764 19.8096C15.1475 19.7539 14.9966 19.7261 14.8237 19.7261C14.5894 19.7261 14.4077 19.7627 14.2788 19.8359C14.1528 19.9092 14.0474 19.9927 13.9624 20.0864ZM22.2461 19.2383V20.3457C22.2461 20.8262 22.1948 21.2407 22.0923 21.5894C21.9897 21.9351 21.8418 22.2192 21.6484 22.4419C21.458 22.6616 21.231 22.8242 20.9673 22.9297C20.7036 23.0352 20.4106 23.0879 20.0884 23.0879C19.8306 23.0879 19.5903 23.0557 19.3677 22.9912C19.145 22.9238 18.9443 22.8198 18.7656 22.6792C18.5898 22.5386 18.4375 22.3613 18.3086 22.1475C18.1826 21.9307 18.0859 21.6729 18.0186 21.374C17.9512 21.0752 17.9175 20.7324 17.9175 20.3457V19.2383C17.9175 18.7578 17.9688 18.3462 18.0713 18.0034C18.1768 17.6577 18.3247 17.375 18.5151 17.1553C18.7085 16.9355 18.937 16.7744 19.2007 16.6719C19.4644 16.5664 19.7573 16.5137 20.0796 16.5137C20.3374 16.5137 20.5762 16.5474 20.7959 16.6147C21.0186 16.6792 21.2192 16.7803 21.3979 16.918C21.5767 17.0557 21.729 17.2329 21.855 17.4497C21.981 17.6636 22.0776 17.9199 22.145 18.2188C22.2124 18.5146 22.2461 18.8545 22.2461 19.2383ZM20.9761 20.5127V19.0669C20.9761 18.8354 20.9629 18.6333 20.9365 18.4604C20.9131 18.2876 20.8765 18.1411 20.8267 18.021C20.7769 17.8979 20.7153 17.7983 20.6421 17.7222C20.5688 17.646 20.4854 17.5903 20.3916 17.5552C20.2979 17.52 20.1938 17.5024 20.0796 17.5024C19.936 17.5024 19.8086 17.5303 19.6973 17.5859C19.5889 17.6416 19.4966 17.731 19.4204 17.854C19.3442 17.9741 19.2856 18.1353 19.2446 18.3374C19.2065 18.5366 19.1875 18.7798 19.1875 19.0669V20.5127C19.1875 20.7441 19.1992 20.9478 19.2227 21.1235C19.249 21.2993 19.2871 21.4502 19.3369 21.5762C19.3896 21.6992 19.4512 21.8003 19.5215 21.8794C19.5947 21.9556 19.6782 22.0112 19.772 22.0464C19.8687 22.0815 19.9741 22.0991 20.0884 22.0991C20.229 22.0991 20.3535 22.0713 20.4619 22.0156C20.5732 21.957 20.667 21.8662 20.7432 21.7432C20.8223 21.6172 20.8809 21.4531 20.9189 21.251C20.957 21.0488 20.9761 20.8027 20.9761 20.5127Z" fill="black"/>
</svg>
