<svg width="35" height="33" viewBox="0 0 35 33" fill="none" xmlns="http://www.w3.org/2000/svg">
<path d="M15.433 1.11601C16.1352 -0.372003 18.2542 -0.372002 18.9565 1.11601L22.6377 8.91594C22.9209 9.51585 23.4904 9.93037 24.1487 10.0158L32.6902 11.1236C34.3166 11.3345 34.9699 13.3364 33.7804 14.4644L27.5051 20.4153C27.0261 20.8696 26.8102 21.5354 26.9315 22.184L28.5233 30.692C28.8254 32.3066 27.1126 33.5456 25.6713 32.7551L18.1321 28.6202C17.5483 28.3 16.8412 28.3 16.2574 28.6202L8.71821 32.7551C7.27692 33.5456 5.56412 32.3066 5.8662 30.692C6.34737 28.0832 6.70901 25.836 7.35827 24.3226C9.19784 21.6201 19.0449 18.0528 18.6015 17.4897C18.7203 16.9718 7.14185 19.5662 5.19407 18.4852L4.11198 17.8366L0.609058 14.4644C-0.580442 13.3364 0.0728327 11.3345 1.69927 11.1236L10.2407 10.0158C10.8991 9.93037 11.4686 9.51585 11.7517 8.91594L15.433 1.11601Z" fill="#8B97FB"/>
<circle cx="17.2733" cy="18.1195" r="8.24768" fill="white"/>
<path d="M13.8086 18.4711L12.7978 18.2294L13.1626 14.9862H16.7573V16.0101H14.2041L14.0459 17.4296C14.1309 17.3798 14.2598 17.327 14.4326 17.2714C14.6055 17.2128 14.7988 17.1835 15.0127 17.1835C15.3232 17.1835 15.5986 17.2318 15.8389 17.3285C16.0791 17.4252 16.2827 17.5658 16.4497 17.7504C16.6196 17.9349 16.7485 18.1605 16.8364 18.4271C16.9243 18.6937 16.9683 18.9955 16.9683 19.3324C16.9683 19.6166 16.9243 19.8876 16.8364 20.1454C16.7485 20.4003 16.6152 20.6288 16.4365 20.8309C16.2578 21.0302 16.0337 21.1869 15.7642 21.3011C15.4946 21.4154 15.1753 21.4725 14.8061 21.4725C14.5308 21.4725 14.2642 21.4315 14.0063 21.3495C13.7515 21.2675 13.5215 21.1459 13.3164 20.9847C13.1143 20.8236 12.9517 20.6288 12.8286 20.4003C12.7085 20.1688 12.6455 19.9052 12.6396 19.6093H13.8965C13.9141 19.7909 13.9609 19.9476 14.0371 20.0795C14.1162 20.2084 14.2202 20.308 14.3491 20.3783C14.478 20.4486 14.6289 20.4838 14.8018 20.4838C14.9629 20.4838 15.1006 20.453 15.2148 20.3915C15.3291 20.33 15.4214 20.245 15.4917 20.1366C15.562 20.0253 15.6133 19.8964 15.6455 19.7499C15.6807 19.6005 15.6982 19.4393 15.6982 19.2665C15.6982 19.0936 15.6777 18.9369 15.6367 18.7963C15.5957 18.6556 15.5327 18.5341 15.4477 18.4315C15.3628 18.329 15.2544 18.2499 15.1226 18.1942C14.9936 18.1385 14.8428 18.1107 14.6699 18.1107C14.4355 18.1107 14.2539 18.1473 14.125 18.2206C13.999 18.2938 13.8935 18.3773 13.8086 18.4711ZM22.0923 17.6229V18.7303C22.0923 19.2108 22.041 19.6254 21.9385 19.974C21.8359 20.3197 21.688 20.6039 21.4946 20.8265C21.3042 21.0463 21.0771 21.2089 20.8135 21.3143C20.5498 21.4198 20.2568 21.4725 19.9346 21.4725C19.6768 21.4725 19.4365 21.4403 19.2139 21.3759C18.9912 21.3085 18.7905 21.2045 18.6118 21.0638C18.436 20.9232 18.2837 20.746 18.1548 20.5321C18.0288 20.3153 17.9321 20.0575 17.8647 19.7587C17.7974 19.4598 17.7637 19.1171 17.7637 18.7303V17.6229C17.7637 17.1425 17.8149 16.7308 17.9175 16.3881C18.0229 16.0424 18.1709 15.7596 18.3613 15.5399C18.5547 15.3202 18.7832 15.1591 19.0469 15.0565C19.3105 14.951 19.6035 14.8983 19.9258 14.8983C20.1836 14.8983 20.4224 14.932 20.6421 14.9994C20.8647 15.0638 21.0654 15.1649 21.2441 15.3026C21.4228 15.4403 21.5752 15.6176 21.7012 15.8344C21.8271 16.0482 21.9238 16.3046 21.9912 16.6034C22.0586 16.8993 22.0923 17.2391 22.0923 17.6229ZM20.8223 18.8973V17.4515C20.8223 17.2201 20.8091 17.0179 20.7827 16.8451C20.7593 16.6722 20.7226 16.5258 20.6728 16.4056C20.623 16.2826 20.5615 16.183 20.4883 16.1068C20.415 16.0306 20.3315 15.975 20.2378 15.9398C20.144 15.9047 20.04 15.8871 19.9258 15.8871C19.7822 15.8871 19.6548 15.9149 19.5435 15.9706C19.4351 16.0262 19.3428 16.1156 19.2666 16.2386C19.1904 16.3588 19.1318 16.5199 19.0908 16.722C19.0527 16.9213 19.0337 17.1644 19.0337 17.4515V18.8973C19.0337 19.1288 19.0454 19.3324 19.0688 19.5082C19.0952 19.684 19.1333 19.8348 19.1831 19.9608C19.2358 20.0839 19.2974 20.1849 19.3677 20.264C19.4409 20.3402 19.5244 20.3959 19.6182 20.431C19.7148 20.4662 19.8203 20.4838 19.9346 20.4838C20.0752 20.4838 20.1997 20.4559 20.3081 20.4003C20.4194 20.3417 20.5132 20.2509 20.5893 20.1278C20.6685 20.0018 20.727 19.8378 20.7651 19.6356C20.8032 19.4335 20.8223 19.1874 20.8223 18.8973Z" fill="black"/>
</svg>
