<svg width="18" height="18" viewBox="0 0 18 18" fill="none" xmlns="http://www.w3.org/2000/svg">
<path fill-rule="evenodd" clip-rule="evenodd" d="M9.34555 17.7975C14.0135 17.7975 17.7976 14.0134 17.7976 9.34552C17.7976 4.67761 14.0135 0.893524 9.34555 0.893524C4.67764 0.893524 0.893555 4.67761 0.893555 9.34552C0.893555 14.0134 4.67764 17.7975 9.34555 17.7975ZM15.9139 9.34552C15.9139 12.9731 12.9732 15.9139 9.34555 15.9139C5.71794 15.9139 2.77718 12.9731 2.77718 9.34552C2.77718 5.71791 5.71794 2.77714 9.34555 2.77714C12.9732 2.77714 15.9139 5.71791 15.9139 9.34552ZM14.9211 9.30734C14.9211 12.4077 12.4078 14.921 9.30743 14.921C6.20708 14.921 3.69376 12.4077 3.69376 9.30734C3.69376 6.207 6.20708 3.69367 9.30743 3.69367C12.4078 3.69367 14.9211 6.207 14.9211 9.30734ZM7.24524 6.7487C7.01324 6.7487 6.82517 6.93677 6.82517 7.16877C6.82517 7.40077 7.01324 7.58884 7.24524 7.58884H8.88741V11.7514C8.88741 11.9834 9.07548 12.1715 9.30748 12.1715C9.53948 12.1715 9.72755 11.9834 9.72755 11.7514V7.58884H11.5223C11.7543 7.58884 11.9424 7.40077 11.9424 7.16877C11.9424 6.93677 11.7543 6.7487 11.5223 6.7487H7.24524Z" fill="#ED8E00"/>
</svg>
