<svg width="31" height="23" viewBox="0 0 31 23" fill="none" xmlns="http://www.w3.org/2000/svg">
<path fill-rule="evenodd" clip-rule="evenodd" d="M10.4095 23C16.1585 23 20.819 18.3395 20.819 12.5905C20.819 6.84152 16.1585 2.18103 10.4095 2.18103C4.66048 2.18103 0 6.84152 0 12.5905C0 18.3395 4.66048 23 10.4095 23ZM18.9353 12.5905C18.9353 17.2992 15.1182 21.1164 10.4095 21.1164C5.70078 21.1164 1.88362 17.2992 1.88362 12.5905C1.88362 7.88181 5.70078 4.06465 10.4095 4.06465C15.1182 4.06465 18.9353 7.88181 18.9353 12.5905ZM17.6466 12.5409C17.6466 16.5652 14.3842 19.8276 10.3599 19.8276C6.33563 19.8276 3.07329 16.5652 3.07329 12.5409C3.07329 8.51664 6.33563 5.25431 10.3599 5.25431C14.3842 5.25431 17.6466 8.51664 17.6466 12.5409ZM7.6832 9.21979C7.38206 9.21979 7.13794 9.46391 7.13794 9.76505C7.13794 10.0662 7.38206 10.3103 7.6832 10.3103H9.81467V15.7134C9.81467 16.0145 10.0588 16.2586 10.3599 16.2586C10.6611 16.2586 10.9052 16.0145 10.9052 15.7134V10.3103H13.2349C13.5361 10.3103 13.7802 10.0662 13.7802 9.76505C13.7802 9.46391 13.5361 9.21979 13.2349 9.21979H7.6832Z" fill="#ED8E00"/>
<path fill-rule="evenodd" clip-rule="evenodd" d="M22.8513 7.43534C24.9045 7.43534 26.569 5.77089 26.569 3.71767C26.569 1.66446 24.9045 0 22.8513 0C20.7981 0 19.1336 1.66446 19.1336 3.71767C19.1336 5.77089 20.7981 7.43534 22.8513 7.43534ZM25.8962 3.71767C25.8962 5.39935 24.533 6.76262 22.8513 6.76262C21.1696 6.76262 19.8063 5.39935 19.8063 3.71767C19.8063 2.03599 21.1696 0.672722 22.8513 0.672722C24.533 0.672722 25.8962 2.03599 25.8962 3.71767ZM25.436 3.69996C25.436 5.13721 24.2708 6.30233 22.8336 6.30233C21.3963 6.30233 20.2312 5.13721 20.2312 3.69996C20.2312 2.26271 21.3963 1.09759 22.8336 1.09759C24.2708 1.09759 25.436 2.26271 25.436 3.69996ZM21.8776 2.51384C21.7701 2.51384 21.6829 2.60102 21.6829 2.70857C21.6829 2.81612 21.7701 2.90331 21.8776 2.90331H22.6389V4.83293C22.6389 4.94048 22.7261 5.02767 22.8336 5.02767C22.9412 5.02767 23.0283 4.94048 23.0283 4.83293V2.90331H23.8604C23.9679 2.90331 24.0551 2.81612 24.0551 2.70857C24.0551 2.60102 23.9679 2.51384 23.8604 2.51384H21.8776Z" fill="#ED8E00"/>
<path fill-rule="evenodd" clip-rule="evenodd" d="M20.2872 18.4197C21.3173 16.7013 21.9095 14.6903 21.9095 12.5409C21.9095 12.028 21.8757 11.523 21.8104 11.028C22.6254 10.6624 23.5543 10.5272 24.5007 10.6906C27.0312 11.1274 28.7285 13.5328 28.2916 16.0633C27.8548 18.5937 25.4494 20.291 22.9189 19.8542C21.8663 19.6725 20.9578 19.1501 20.2872 18.4197ZM21.6842 10.2694C22.5957 9.89735 23.6193 9.76807 24.6611 9.94788C27.6219 10.459 29.6078 13.2735 29.0967 16.2343C28.5856 19.1951 25.7711 21.181 22.8102 20.6699C21.635 20.4671 20.6134 19.9013 19.8406 19.1076C19.6084 19.4387 19.3591 19.757 19.0941 20.0611C20.0231 20.9702 21.228 21.6165 22.6058 21.8544C26.2207 22.4784 29.6571 20.0537 30.2811 16.4388C30.9051 12.8238 28.4805 9.38747 24.8655 8.76347C23.651 8.55382 22.4566 8.6883 21.3823 9.09642C21.5029 9.47914 21.6039 9.87053 21.6842 10.2694ZM21.9852 13.1772C22.0179 12.9878 22.1979 12.8608 22.3872 12.8935L25.8781 13.4961C26.0675 13.5288 26.1945 13.7088 26.1618 13.8982C26.1291 14.0875 25.9491 14.2145 25.7598 14.1818L24.2949 13.929L23.7084 17.3264C23.6757 17.5158 23.4957 17.6428 23.3064 17.6101C23.117 17.5774 22.99 17.3974 23.0227 17.208L23.6091 13.8106L22.2689 13.5792C22.0795 13.5466 21.9525 13.3666 21.9852 13.1772Z" fill="#ED8E00"/>
</svg>
