<svg width="16" height="16" viewBox="0 0 16 16" fill="none" xmlns="http://www.w3.org/2000/svg">
<circle cx="8" cy="8" r="8" fill="#28A07D"/>
<path fill-rule="evenodd" clip-rule="evenodd" d="M11.6456 5.08045V5.977H10.3123H8.97894V6.54707V7.11709L9.31227 7.1468C10.9797 7.29544 11.9287 7.49337 12.4628 7.80381C12.6782 7.92909 12.7491 8.02684 12.7491 8.19912C12.7491 8.63006 11.3326 9.06054 9.50767 9.18413L9.00192 9.21838L8.98992 11.0919L8.97792 12.9655H8.01291H7.0479V11.102C7.0479 9.65057 7.03521 9.23489 6.99043 9.22215C6.95884 9.21314 6.63296 9.18312 6.26629 9.15544C4.86353 9.04951 3.71103 8.75378 3.40399 8.42105C3.24303 8.24657 3.22795 8.16859 3.32455 8.00974C3.55622 7.62882 4.86271 7.29411 6.69158 7.14721L7.0479 7.11857V6.54781V5.977H5.71457H4.38124V5.08045V4.1839H8.01342H11.6456V5.08045ZM4.25613 7.68197C4.7971 7.5027 5.34551 7.41153 6.58813 7.29424C6.67664 7.28592 6.81572 7.27576 6.89724 7.27172L7.04537 7.26436L7.05816 7.91953L7.07089 8.5747H8.01342H8.95595L8.96873 7.91572L8.98151 7.25677L9.33655 7.28689C11.5586 7.47562 12.5971 7.8273 12.1954 8.25493C12.0524 8.40716 11.702 8.5307 11.0342 8.66436C10.1574 8.83981 9.43728 8.8947 8.01342 8.8947C5.6394 8.8947 3.94597 8.59999 3.74151 8.15126C3.69613 8.05167 3.70661 8.02284 3.83006 7.90753C3.90707 7.83558 4.0988 7.73406 4.25613 7.68197Z" fill="white"/>
</svg>
