<svg width="120" height="115" viewBox="0 0 120 115" fill="none" xmlns="http://www.w3.org/2000/svg">
<g filter="url(#filter0_i_5844_1631)">
<path fill-rule="evenodd" clip-rule="evenodd" d="M65.7393 3.88912C63.3039 -1.29637 55.9554 -1.29638 53.52 3.88911L40.7539 31.0707C39.772 33.1613 37.7971 34.6058 35.5138 34.9034L5.89291 38.7639C0.252577 39.4991 -2.01292 46.4753 2.11215 50.4062L14.2599 62.1577L18.0125 64.418C19.9539 65.5007 24.6539 65.5254 30.3569 65.0536C30.3355 64.5951 30.3247 64.1338 30.3247 63.6699C30.3247 47.5201 43.4167 34.4281 59.5665 34.4281C75.7163 34.4281 88.8083 47.5201 88.8083 63.6699C88.8083 79.8197 75.7163 92.9117 59.5665 92.9117C48.5086 92.9117 38.8844 86.7739 33.9147 77.7193C30.1157 80.1159 27.0332 82.5232 25.5177 84.7605C23.5207 89.4383 22.3083 96.1279 20.8954 103.924C20.7153 104.918 20.532 105.929 20.3434 106.957C19.2958 112.584 25.2356 116.901 30.2339 114.147L56.3789 99.7369C58.4035 98.621 60.8558 98.621 62.8804 99.7369L89.0254 114.147C94.0236 116.901 99.9635 112.584 98.9159 106.957L93.3958 77.3079C92.9749 75.0476 93.7238 72.7272 95.3851 71.1442L117.147 50.4062C121.272 46.4753 119.007 39.4991 113.366 38.7639L83.7454 34.9034C81.4622 34.6058 79.4872 33.1613 78.5054 31.0707L65.7393 3.88912Z" fill="url(#paint0_linear_5844_1631)"/>
</g>
<defs>
<filter id="filter0_i_5844_1631" x="-2.18626" y="0" width="121.446" height="117.186" filterUnits="userSpaceOnUse" color-interpolation-filters="sRGB">
<feFlood flood-opacity="0" result="BackgroundImageFix"/>
<feBlend mode="normal" in="SourceGraphic" in2="BackgroundImageFix" result="shape"/>
<feColorMatrix in="SourceAlpha" type="matrix" values="0 0 0 0 0 0 0 0 0 0 0 0 0 0 0 0 0 0 127 0" result="hardAlpha"/>
<feOffset dx="-2.18626" dy="2.18626"/>
<feGaussianBlur stdDeviation="1.96763"/>
<feComposite in2="hardAlpha" operator="arithmetic" k2="-1" k3="1"/>
<feColorMatrix type="matrix" values="0 0 0 0 0.956863 0 0 0 0 0.964706 0 0 0 0 0.717647 0 0 0 1 0"/>
<feBlend mode="normal" in2="shape" result="effect1_innerShadow_5844_1631"/>
</filter>
<linearGradient id="paint0_linear_5844_1631" x1="85.5595" y1="18.459" x2="23.683" y2="112.795" gradientUnits="userSpaceOnUse">
<stop stop-color="#FDD128"/>
<stop offset="0.635" stop-color="#FF8D02"/>
</linearGradient>
</defs>
</svg>
