<svg width="14" height="14" viewBox="0 0 14 14" fill="none" xmlns="http://www.w3.org/2000/svg">
<path d="M6.41961 0.973017C6.696 0.384523 7.52997 0.384524 7.80636 0.973018L9.25517 4.05782C9.3666 4.29507 9.59073 4.45901 9.84985 4.49278L13.2115 4.93091C13.8516 5.01434 14.1087 5.80606 13.6406 6.25218L11.1708 8.6057C10.9823 8.78536 10.8973 9.04869 10.9451 9.30521L11.5715 12.67C11.6904 13.3086 11.0163 13.7986 10.4491 13.486L7.48191 11.8506C7.25214 11.724 6.97383 11.724 6.74406 11.8506L3.7769 13.486C3.20966 13.7986 2.53556 13.3086 2.65445 12.67C2.84382 11.6383 2.98615 10.7495 3.24168 10.151C3.96567 9.08218 7.84116 7.67134 7.66665 7.44864C7.7134 7.24381 3.1565 8.26988 2.38992 7.84235L1.96404 7.58583L0.585408 6.25218C0.11726 5.80606 0.374368 5.01434 1.01448 4.93091L4.37612 4.49278C4.63524 4.45901 4.85937 4.29507 4.9708 4.05782L6.41961 0.973017Z" fill="#31B545"/>
</svg>
