<svg width="25" height="26" viewBox="0 0 25 26" fill="none" xmlns="http://www.w3.org/2000/svg">
<path d="M11.2192 1.7618C11.7298 0.674777 13.2702 0.674779 13.7808 1.7618L16.4569 7.4598C16.6627 7.89804 17.0767 8.20086 17.5553 8.26324L23.7647 9.07251C24.9471 9.22661 25.422 10.689 24.5572 11.5131L19.9953 15.8603C19.6471 16.1922 19.4901 16.6786 19.5783 17.1524L20.7355 23.3676C20.9551 24.5471 19.7099 25.4523 18.6622 24.8748L13.1814 21.8541C12.757 21.6202 12.243 21.6202 11.8186 21.8541L6.33785 24.8748C5.29008 25.4523 4.04493 24.5471 4.26453 23.3676C4.61432 21.4619 4.87723 19.8202 5.34922 18.7146C6.68652 16.7404 13.845 14.1344 13.5227 13.7231C13.609 13.3447 5.19189 15.24 3.77592 14.4503L2.98927 13.9765L0.442765 11.5131C-0.421962 10.689 0.0529469 9.22661 1.23532 9.07251L7.44467 8.26324C7.92329 8.20086 8.3373 7.89804 8.54313 7.4598L11.2192 1.7618Z" fill="url(#paint0_linear_186_349)"/>
<path fill-rule="evenodd" clip-rule="evenodd" d="M13.7808 1.7618C13.2702 0.674779 11.7298 0.674777 11.2192 1.7618L8.54313 7.4598C8.3373 7.89804 7.92329 8.20086 7.44467 8.26324L1.23532 9.07251C0.0529469 9.22661 -0.421962 10.689 0.442765 11.5131L1.26112 12.3047C0.658287 11.4641 1.14724 10.2143 2.23532 10.0725L8.44467 9.26324C8.9233 9.20086 9.3373 8.89804 9.54313 8.4598L12.2192 2.7618C12.5405 2.07783 13.2695 1.82422 13.8931 2.00098L13.7808 1.7618ZM17.3438 8.219L17.4569 8.4598C17.6627 8.89804 18.0767 9.20086 18.5553 9.26324L24.7647 10.0725C24.828 10.0808 24.8894 10.0928 24.9485 10.1083C24.8073 9.59092 24.3826 9.15305 23.7647 9.07251L17.5553 8.26324C17.4832 8.25384 17.4125 8.23897 17.3438 8.219ZM5.28691 25.0031C5.23401 24.8068 5.22272 24.5922 5.26453 24.3676C5.30407 24.1522 5.3425 23.9401 5.38025 23.7319C5.67643 22.0976 5.93058 20.6952 6.34922 19.7146C7.1575 18.5214 10.0923 17.0974 12.2166 16.0666C13.607 15.392 14.6502 14.8858 14.5227 14.7231C14.5551 14.5809 13.3861 14.7599 11.8391 14.9968C11.6136 15.0313 11.3801 15.0671 11.1411 15.1033C9.02333 16.131 6.14795 17.5355 5.34922 18.7146C4.93058 19.6952 4.67643 21.0976 4.38025 22.7319C4.3425 22.9401 4.30407 23.1522 4.26453 23.3676C4.11805 24.1544 4.62327 24.8191 5.28691 25.0031Z" fill="#CD7F00"/>
<defs>
<linearGradient id="paint0_linear_186_349" x1="17.9356" y1="4.81603" x2="4.96461" y2="24.5915" gradientUnits="userSpaceOnUse">
<stop stop-color="#FDD128"/>
<stop offset="0.635" stop-color="#FF8D02"/>
</linearGradient>
</defs>
</svg>
