<svg width="41" height="53" viewBox="0 0 41 53" fill="none" xmlns="http://www.w3.org/2000/svg">
<g style="mix-blend-mode:hard-light">
<path d="M17.1643 52.5871C11.235 52.0106 5.22333 49.1283 2.25868 43.9402C-0.62362 38.7521 0.117542 32.1639 2.17633 26.4817L3.90571 31.4228C4.07041 31.9169 4.31747 32.4933 4.72922 32.7404C5.38804 33.1522 6.2939 32.8228 6.78801 32.1639C7.19977 31.5051 7.28212 30.6816 7.19977 29.9405C6.95271 26.6464 5.05863 23.5994 4.97628 20.3053C4.89393 16.5172 7.28212 13.0584 10.2468 10.6702C10.3291 11.9878 10.6585 13.3878 11.0703 14.6231C11.235 15.1172 11.5644 15.6113 12.0585 15.6936C12.3879 15.6936 12.7173 15.5289 12.9644 15.2819C15.4349 13.2231 16.9172 10.2584 17.4937 7.12909C17.7408 5.56442 17.7408 3.91739 17.4114 2.35271C17.329 2.0233 16.6702 0.376274 16.8349 0.12922C17.0819 -0.364889 18.4819 0.70568 18.8113 0.870383C24.2465 4.32914 27.87 10.5055 27.9523 16.9289C27.9523 17.9171 28.117 19.2348 29.1053 19.3995C29.6817 19.4818 30.2582 19.1524 30.5876 18.6583C30.917 18.1642 30.917 17.5877 30.9993 17.0113C34.8699 20.47 37.6698 24.7523 39.5639 29.5287C40.6345 32.3286 41.3756 35.3756 40.7992 38.3403C40.3051 41.0579 38.9874 43.5284 37.0934 45.5872C33.964 49.1283 29.7641 51.9283 25.07 52.4224C22.5995 52.6695 19.9642 52.7518 17.1643 52.5871Z" fill="#E44800"/>
<path d="M31.6582 48.7989C31.4935 49.3753 31.2464 50.0342 30.9994 50.6106C29.1877 51.5988 27.2112 52.2576 25.1524 52.4223C23.5878 52.5871 22.0231 52.6694 20.376 52.6694C19.3878 52.6694 18.3173 52.6694 17.2467 52.5871C15.3526 52.4224 13.4585 52.0106 11.6468 51.3518C10.6586 49.9518 9.99976 48.3048 9.75271 46.6577C9.17625 43.0343 10.2468 39.3285 12.3056 36.2815C12.635 35.7874 13.3762 35.9521 13.5409 36.5285C14.1173 38.4226 15.3526 40.152 16.7526 41.6343C17.1643 42.0461 17.8232 41.799 17.9055 41.2226C18.0702 39.2461 18.482 35.5403 19.2231 33.5639C20.129 31.0933 21.529 28.7051 23.5878 26.9757C23.9995 26.6463 24.576 26.811 24.6583 27.3875C25.0701 29.8581 26.3054 32.1639 27.5406 34.3874C29.023 36.8579 30.67 39.3285 31.4111 42.1284C32.1523 44.1872 32.2347 46.5754 31.6582 48.7989Z" fill="white"/>
<path d="M31.6582 48.7989C31.4935 49.3753 31.2464 50.0342 30.9994 50.6106C29.1877 51.5988 27.2112 52.2576 25.1524 52.4223C23.5878 52.5871 22.0231 52.6694 20.376 52.6694C19.3878 52.6694 18.3173 52.6694 17.2467 52.5871C15.3526 52.4224 13.4585 52.0106 11.6468 51.3518C10.6586 49.9518 9.99976 48.3048 9.75271 46.6577C9.17625 43.0343 10.2468 39.3285 12.3056 36.2815C12.635 35.7874 13.3762 35.9521 13.5409 36.5285C14.1173 38.4226 15.3526 40.152 16.7526 41.6343C17.1643 42.0461 17.8232 41.799 17.9055 41.2226C18.0702 39.2461 18.482 35.5403 19.2231 33.5639C20.129 31.0933 21.529 28.7051 23.5878 26.9757C23.9995 26.6463 24.576 26.811 24.6583 27.3875C25.0701 29.8581 26.3054 32.1639 27.5406 34.3874C29.023 36.8579 30.67 39.3285 31.4111 42.1284C32.1523 44.1872 32.2347 46.5754 31.6582 48.7989Z" fill="#FFC965"/>
<path d="M31.6582 48.7989C31.4935 49.3753 31.2464 50.0342 30.9994 50.6106C29.1877 51.5988 27.2112 52.2576 25.1524 52.4223C23.5878 52.5871 22.0231 52.6694 20.376 52.6694C19.3878 52.6694 18.3173 52.6694 17.2467 52.5871C15.3526 52.4224 13.4585 52.0106 11.6468 51.3518C10.6586 49.9518 9.99976 48.3048 9.75271 46.6577C9.17625 43.0343 10.2468 39.3285 12.3056 36.2815C12.635 35.7874 13.3762 35.9521 13.5409 36.5285C14.1173 38.4226 15.3526 40.152 16.7526 41.6343C17.1643 42.0461 17.8232 41.799 17.9055 41.2226C18.0702 39.2461 18.482 35.5403 19.2231 33.5639C20.129 31.0933 21.529 28.7051 23.5878 26.9757C23.9995 26.6463 24.576 26.811 24.6583 27.3875C25.0701 29.8581 26.3054 32.1639 27.5406 34.3874C29.023 36.8579 30.67 39.3285 31.4111 42.1284C32.1523 44.1872 32.2347 46.5754 31.6582 48.7989Z" fill="#FFC965"/>
</g>
</svg>
