<svg width="58" height="56" viewBox="0 0 58 56" fill="none" xmlns="http://www.w3.org/2000/svg">
<path d="M26.5799 2.86001C27.7439 0.379994 31.2561 0.379997 32.4201 2.86001L38.5217 15.8599C38.991 16.8597 39.9349 17.5506 41.0261 17.6929L55.1835 19.5393C57.8793 19.8909 58.9621 23.2273 56.9905 25.1073L46.5893 35.0255C45.7953 35.7826 45.4374 36.8923 45.6385 37.9733L48.2769 52.1533C48.7776 54.8443 45.9386 56.9094 43.5497 55.5919L31.0537 48.7003C30.086 48.1666 28.914 48.1666 27.9463 48.7003L15.4503 55.5919C13.0614 56.9094 10.2224 54.8443 10.7231 52.1533C11.5207 47.8054 12.1201 44.06 13.1962 41.5376C16.2453 37.0334 32.5667 31.0879 31.8317 30.1494C32.0286 29.2863 12.8375 33.6103 9.60909 31.8086L7.81553 30.7276L2.0095 25.1073C0.0379265 23.2273 1.12072 19.8909 3.81652 19.5393L17.9739 17.6929C19.0651 17.5506 20.0091 16.8597 20.4783 15.8599L26.5799 2.86001Z" fill="#9592A0"/>
<path d="M25.5799 1.86001C26.7439 -0.620006 30.2561 -0.620003 31.4201 1.86001L37.5217 14.8599C37.991 15.8597 38.9349 16.5506 40.0261 16.6929L54.1835 18.5393C56.8793 18.8909 57.9621 22.2273 55.9905 24.1073L45.5893 34.0255C44.7953 34.7826 44.4374 35.8923 44.6385 36.9733L47.2769 51.1533C47.7776 53.8443 44.9386 55.9094 42.5497 54.5919L30.0537 47.7003C29.086 47.1666 27.914 47.1666 26.9463 47.7003L14.4503 54.5919C12.0614 55.9094 9.22244 53.8443 9.72313 51.1533C10.5207 46.8054 11.1201 43.06 12.1962 40.5376C15.2453 36.0334 31.5667 30.0879 30.8317 29.1494C31.0286 28.2863 11.8375 32.6103 8.60909 30.8086L6.81553 29.7276L1.0095 24.1073C-0.962074 22.2273 0.120719 18.8909 2.81652 18.5393L16.9739 16.6929C18.0651 16.5506 19.0091 15.8597 19.4783 14.8599L25.5799 1.86001Z" fill="url(#paint0_linear_184_1332)"/>
<defs>
<linearGradient id="paint0_linear_184_1332" x1="52.0384" y1="6.11591" x2="8.47582" y2="53.153" gradientUnits="userSpaceOnUse">
<stop stop-color="#E8E6EF"/>
<stop offset="1" stop-color="#D6D4DF"/>
</linearGradient>
</defs>
</svg>
