<svg width="15" height="15" viewBox="0 0 15 15" fill="none" xmlns="http://www.w3.org/2000/svg">
<circle cx="7.5" cy="7.5" r="7.5" fill="#33B73A"/>
<path d="M7.81902 3.19792L7.81902 4.53159C7.81902 4.70477 7.95505 4.83814 8.1269 4.85805C9.6437 5.03388 10.7737 6.49296 10.4014 8.11858C10.1818 9.07671 9.40484 9.85501 8.44738 10.076C6.71227 10.4761 5.16495 9.1623 5.16495 7.49421L6.90078 7.49421C7.03481 7.49421 7.15624 7.41326 7.20733 7.28918C7.25842 7.1651 7.22989 7.02311 7.13501 6.92756L4.40389 4.09831C4.2745 3.96892 4.06417 3.96892 3.93478 4.09831L1.09671 6.92756C1.00249 7.02311 0.973955 7.1651 1.02505 7.28918C1.07614 7.41326 1.19756 7.49421 1.33159 7.49421L3.17439 7.49421C3.17439 10.078 5.29433 12.1753 7.8867 12.1382C10.351 12.103 12.4265 10.0289 12.4637 7.56454C12.5008 5.08895 10.5899 3.04266 8.16804 2.86218C7.97893 2.84824 7.81902 3.00815 7.81902 3.19792Z" fill="white"/>
</svg>
