<svg width="18" height="18" viewBox="0 0 18 18" fill="none" xmlns="http://www.w3.org/2000/svg">
<circle cx="9" cy="9" r="9" fill="#EA4001"/>
<path d="M9.38205 3.83702L9.38205 5.43743C9.38205 5.64524 9.54527 5.80528 9.75149 5.82917C11.5717 6.04017 12.9276 7.79106 12.4809 9.74181C12.2174 10.8916 11.285 11.8255 10.1361 12.0907C8.05395 12.5708 6.19715 10.9943 6.19715 8.99256L8.28016 8.99256C8.441 8.99256 8.5867 8.89542 8.64801 8.74653C8.70932 8.59764 8.67509 8.42725 8.56123 8.31259L5.28388 4.91748C5.12862 4.76222 4.87622 4.76222 4.72095 4.91748L1.31527 8.31259C1.2022 8.42725 1.16797 8.59764 1.22927 8.74653C1.29058 8.89542 1.43629 8.99256 1.59713 8.99256L3.80848 8.99256C3.80848 12.0931 6.35241 14.6099 9.46326 14.5653C12.4204 14.5231 14.911 12.0341 14.9556 9.07696C15.0002 6.10625 12.7071 3.6507 9.80086 3.43413C9.57394 3.41741 9.38205 3.6093 9.38205 3.83702Z" fill="white"/>
</svg>
